<svg width="952" height="449" viewBox="0 0 952 449" fill="none" xmlns="http://www.w3.org/2000/svg">
<path d="M224.412 0.210938L418.451 112.239V336.296L224.412 448.324L30.3734 336.296V112.239L224.412 0.210938Z" fill="#326CE5"/>
<path d="M180.926 216.503H234.58C241.759 216.503 247.579 210.684 247.579 203.505C247.579 196.326 241.759 190.506 234.58 190.506H180.926V163.742H234.58C256.54 163.742 274.342 181.544 274.342 203.505C274.342 219.636 264.736 233.524 250.932 239.759L338.078 344.305L316.654 360.879L217.829 243.267H207.69V284.745H180.926V216.503Z" fill="white"/>
<mask id="path-3-inside-1_12836_63113" fill="white">
<path d="M311.26 297.753C327.967 275.626 340.216 243.329 338.142 215.682C336.067 188.035 323.989 162.091 304.167 142.706C284.346 123.321 258.139 111.823 230.453 110.365C202.766 108.906 175.497 117.587 153.749 134.782C132 151.977 117.263 176.508 112.295 203.785C107.327 231.061 112.469 259.213 126.758 282.971C141.047 306.73 163.505 324.468 189.928 332.865C216.35 341.261 251.739 337.352 277.123 326.201L258.548 301.816C239.676 310.107 218.429 311.237 198.784 304.994C179.139 298.751 162.442 285.564 151.819 267.899C141.195 250.235 137.372 229.304 141.065 209.025C144.759 188.745 155.716 170.507 171.886 157.722C188.055 144.938 208.33 138.484 228.914 139.568C249.499 140.653 268.983 149.201 283.72 163.614C298.457 178.026 307.437 197.315 308.98 217.87C310.522 238.426 304.521 258.839 292.1 275.289L311.26 297.753Z"/>
</mask>
<path d="M311.26 297.753L288.643 317.044L312.672 345.217L334.985 315.666L311.26 297.753ZM277.123 326.201L289.08 353.418L323.654 338.228L300.771 308.187L277.123 326.201ZM258.548 301.816L282.197 283.803L268.017 265.187L246.591 274.599L258.548 301.816ZM292.1 275.289L268.376 257.376L253.994 276.422L269.482 294.581L292.1 275.289ZM311.26 297.753L334.985 315.666C354.867 289.335 370.532 250.054 367.786 213.457L338.142 215.682L308.497 217.906C309.9 236.604 301.067 261.918 287.536 279.839L311.26 297.753ZM338.142 215.682L367.786 213.457C365.17 178.601 349.943 145.892 324.952 121.453L304.167 142.706L283.382 163.96C298.035 178.29 306.964 197.468 308.497 217.906L338.142 215.682ZM304.167 142.706L324.952 121.453C299.962 97.0129 266.923 82.5172 232.017 80.6784L230.453 110.365L228.889 140.052C249.356 141.13 268.729 149.629 283.382 163.96L304.167 142.706ZM230.453 110.365L232.017 80.6784C197.111 78.8396 162.731 89.7837 135.311 111.462L153.749 134.782L172.186 158.102C188.263 145.39 208.422 138.973 228.889 140.052L230.453 110.365ZM153.749 134.782L135.311 111.462C107.892 133.141 89.3115 164.069 83.0481 198.458L112.295 203.785L141.541 209.111C145.214 188.948 156.108 170.813 172.186 158.102L153.749 134.782ZM112.295 203.785L83.0481 198.458C76.7847 232.846 83.2673 268.339 101.283 298.293L126.758 282.971L152.233 267.65C141.67 250.086 137.869 229.275 141.541 209.111L112.295 203.785ZM126.758 282.971L101.283 298.293C119.298 328.247 147.611 350.61 180.924 361.196L189.928 332.865L198.931 304.533C179.398 298.326 162.796 285.213 152.233 267.65L126.758 282.971ZM189.928 332.865L180.924 361.196C215.508 372.186 258.41 366.892 289.08 353.418L277.123 326.201L265.166 298.984C245.069 307.813 217.193 310.337 198.931 304.533L189.928 332.865ZM277.123 326.201L300.771 308.187L282.197 283.803L258.548 301.816L234.9 319.83L253.474 344.214L277.123 326.201ZM258.548 301.816L246.591 274.599C234.338 279.982 220.543 280.716 207.788 276.663L198.784 304.994L189.781 333.326C216.316 341.758 245.014 340.232 270.505 329.033L258.548 301.816ZM198.784 304.994L207.788 276.663C195.033 272.609 184.192 264.047 177.294 252.578L151.819 267.899L126.343 283.221C140.693 307.08 163.246 324.893 189.781 333.326L198.784 304.994ZM151.819 267.899L177.294 252.578C170.396 241.108 167.914 227.519 170.312 214.352L141.065 209.025L111.819 203.698C106.83 231.09 111.993 259.361 126.343 283.221L151.819 267.899ZM141.065 209.025L170.312 214.352C172.71 201.184 179.824 189.343 190.323 181.042L171.886 157.722L153.448 134.403C131.608 151.671 116.808 176.306 111.819 203.698L141.065 209.025ZM171.886 157.722L190.323 181.042C200.822 172.741 213.985 168.551 227.351 169.255L228.914 139.568L230.478 109.882C202.674 108.417 175.289 117.135 153.448 134.403L171.886 157.722ZM228.914 139.568L227.351 169.255C240.716 169.959 253.366 175.509 262.935 184.867L283.72 163.614L304.505 142.36C284.6 122.893 258.282 111.347 230.478 109.882L228.914 139.568ZM283.72 163.614L262.935 184.867C272.503 194.225 278.334 206.749 279.335 220.095L308.98 217.87L338.624 215.646C336.541 187.881 324.411 161.827 304.505 142.36L283.72 163.614ZM308.98 217.87L279.335 220.095C280.337 233.441 276.441 246.695 268.376 257.376L292.1 275.289L315.825 293.202C332.602 270.983 340.708 243.41 338.624 215.646L308.98 217.87ZM292.1 275.289L269.482 294.581L288.643 317.044L311.26 297.753L333.878 278.461L314.718 255.997L292.1 275.289Z" fill="white" mask="url(#path-3-inside-1_12836_63113)"/>
<path d="M224.457 64.9609V138.686" stroke="white" stroke-width="27.1112"/>
<path d="M337.078 111.609L284.947 163.741" stroke="white" stroke-width="27.1112"/>
<path d="M383.727 224.234H310.002" stroke="white" stroke-width="27.1112"/>
<path d="M224.457 383.504V309.779" stroke="white" stroke-width="27.1112"/>
<path d="M111.836 336.855L163.967 284.724" stroke="white" stroke-width="27.1112"/>
<path d="M65.1836 224.234H138.908" stroke="white" stroke-width="27.1112"/>
<path d="M111.836 111.609L163.967 163.741" stroke="white" stroke-width="27.1112"/>
<circle cx="224.414" cy="224.27" r="133.172" stroke="white" stroke-width="7"/>
<path d="M490.269 293.866C490.269 293.999 490.202 294.132 490.069 294.266C490.069 294.266 490.002 294.266 489.869 294.266H463.869C463.735 294.266 463.602 294.266 463.469 294.266C463.469 294.132 463.469 293.999 463.469 293.866V146.466C463.469 146.332 463.469 146.266 463.469 146.266C463.602 146.132 463.735 146.066 463.869 146.066H490.269V293.866ZM477.069 210.466H513.069C517.602 210.466 521.469 209.599 524.669 207.866C527.869 206.132 530.269 203.799 531.869 200.866C533.469 197.932 534.269 194.666 534.269 191.066C534.269 187.466 533.469 184.266 531.869 181.466C530.269 178.532 527.869 176.266 524.669 174.666C521.469 172.932 517.602 172.066 513.069 172.066H481.469V146.066H513.069C522.135 146.066 530.335 148.266 537.669 152.666C545.002 156.932 550.735 162.532 554.869 169.466C559.002 176.399 561.069 183.599 561.069 191.066C561.069 198.399 559.002 205.599 554.869 212.666C550.735 219.599 545.002 225.332 537.669 229.866C530.335 234.266 522.135 236.466 513.069 236.466H477.069V210.466ZM528.269 222.666L569.069 293.866C569.202 293.999 569.202 294.132 569.069 294.266C568.935 294.266 568.802 294.266 568.669 294.266H538.869C538.735 294.266 538.602 294.266 538.469 294.266C538.335 294.266 538.269 294.199 538.269 294.066L501.469 222.666H528.269ZM617.613 293.866C617.613 293.999 617.546 294.132 617.413 294.266C617.413 294.266 617.346 294.266 617.213 294.266H591.213C591.079 294.266 590.946 294.266 590.813 294.266C590.813 294.132 590.813 293.999 590.813 293.866V146.466C590.813 146.332 590.813 146.266 590.813 146.266C590.946 146.132 591.079 146.066 591.213 146.066H617.213C617.346 146.066 617.413 146.132 617.413 146.266C617.546 146.266 617.613 146.332 617.613 146.466V293.866ZM662.813 146.266C662.813 146.132 662.813 146.066 662.813 146.066C662.946 146.066 663.079 146.066 663.213 146.066H696.213C696.346 146.066 696.413 146.132 696.413 146.266C696.413 146.266 696.413 146.332 696.413 146.466L607.213 253.666L595.613 228.466L662.813 146.266ZM705.413 293.866C705.413 293.999 705.413 294.132 705.413 294.266C705.413 294.266 705.346 294.266 705.213 294.266H674.813C674.679 294.266 674.546 294.266 674.413 294.266C674.279 294.266 674.213 294.199 674.213 294.066L616.413 207.066L643.813 201.066L705.413 293.866ZM766.091 200.266C770.224 200.266 773.691 199.666 776.491 198.466C779.291 197.132 781.357 195.266 782.691 192.866C784.157 190.466 784.891 187.532 784.891 184.066C784.891 180.599 784.157 177.666 782.691 175.266C781.357 172.866 779.291 171.066 776.491 169.866C773.691 168.532 770.224 167.866 766.091 167.866C761.957 167.866 758.424 168.532 755.491 169.866C752.691 171.066 750.557 172.866 749.091 175.266C747.757 177.666 747.091 180.599 747.091 184.066C747.091 187.532 747.757 190.466 749.091 192.866C750.557 195.266 752.691 197.132 755.491 198.466C758.424 199.666 761.957 200.266 766.091 200.266ZM766.091 220.666C763.824 220.666 761.491 221.066 759.091 221.866C757.624 222.399 756.291 222.666 755.091 222.666C754.024 222.666 752.691 222.266 751.091 221.466C742.424 217.332 735.224 212.199 729.491 206.066C723.757 199.932 720.891 192.599 720.891 184.066C720.891 176.332 722.891 169.399 726.891 163.266C731.024 157.132 736.491 152.399 743.291 149.066C750.224 145.599 757.824 143.866 766.091 143.866C774.224 143.866 781.691 145.599 788.491 149.066C795.424 152.399 800.891 157.132 804.891 163.266C809.024 169.399 811.091 176.332 811.091 184.066C811.091 192.199 808.357 199.266 802.891 205.266C797.557 211.132 790.757 216.266 782.491 220.666C780.624 221.599 779.091 222.132 777.891 222.266C776.691 222.266 775.091 222.066 773.091 221.666C770.157 220.999 767.824 220.666 766.091 220.666ZM766.091 272.466C771.424 272.466 775.957 271.599 779.691 269.866C783.424 267.999 786.291 265.466 788.291 262.266C790.291 258.932 791.291 254.999 791.291 250.466C791.291 245.799 790.291 241.799 788.291 238.466C786.291 234.999 783.357 232.399 779.491 230.666C775.757 228.799 771.291 227.866 766.091 227.866C760.757 227.866 756.157 228.799 752.291 230.666C748.557 232.399 745.691 234.999 743.691 238.466C741.691 241.799 740.691 245.799 740.691 250.466C740.691 254.999 741.691 258.932 743.691 262.266C745.691 265.466 748.557 267.999 752.291 269.866C756.157 271.599 760.757 272.466 766.091 272.466ZM766.091 296.466C756.491 296.466 747.691 294.599 739.691 290.866C731.824 287.132 725.557 281.799 720.891 274.866C716.224 267.799 713.891 259.666 713.891 250.466C713.891 242.199 715.691 234.932 719.291 228.666C722.891 222.266 727.557 217.199 733.291 213.466C739.024 209.599 745.091 207.066 751.491 205.866C753.224 205.599 754.557 205.532 755.491 205.666C756.557 205.799 757.757 206.066 759.091 206.466C761.491 207.266 763.824 207.666 766.091 207.666C767.957 207.666 770.357 207.332 773.291 206.666C775.024 206.266 776.357 205.999 777.291 205.866C778.357 205.732 779.757 205.866 781.491 206.266C787.757 207.466 793.691 209.999 799.291 213.866C804.891 217.599 809.424 222.599 812.891 228.866C816.357 235.132 818.091 242.332 818.091 250.466C818.091 259.666 815.757 267.799 811.091 274.866C806.424 281.799 800.091 287.132 792.091 290.866C784.224 294.599 775.557 296.466 766.091 296.466ZM832.213 252.666C832.213 252.532 832.213 252.466 832.213 252.466C832.346 252.332 832.479 252.266 832.613 252.266L858.413 248.666C858.546 248.666 858.613 248.732 858.613 248.866C858.746 248.866 858.813 248.932 858.813 249.066C860.013 256.932 864.079 262.999 871.013 267.266C877.946 271.532 885.546 273.132 893.813 272.066C902.079 270.866 908.479 266.932 913.013 260.266C915.413 256.666 916.679 253.066 916.813 249.466C916.946 245.732 915.879 242.399 913.613 239.466C911.479 236.532 908.413 234.332 904.413 232.866C901.346 231.799 895.479 230.666 886.813 229.466C885.079 229.332 880.413 228.666 872.813 227.466C863.079 225.732 855.146 220.932 849.013 213.066C842.879 205.066 839.813 195.999 839.813 185.866C839.813 175.732 843.279 166.866 850.213 159.266C857.813 150.732 867.613 145.666 879.613 144.066C891.746 142.466 903.279 144.599 914.213 150.466C925.279 156.332 933.279 165.466 938.213 177.866C938.346 177.999 938.346 178.132 938.213 178.266C938.213 178.266 938.146 178.332 938.013 178.466L914.013 187.666C913.879 187.799 913.746 187.866 913.613 187.866C913.613 187.732 913.546 187.599 913.413 187.466C910.613 180.399 906.546 175.266 901.213 172.066C896.013 168.732 890.546 167.532 884.813 168.466C879.213 169.266 874.346 171.932 870.213 176.466C867.279 179.666 865.813 183.266 865.813 187.266C865.813 191.132 867.079 194.666 869.613 197.866C872.146 200.932 875.479 202.999 879.613 204.066C881.079 204.466 883.013 204.866 885.413 205.266C887.813 205.532 890.213 205.799 892.613 206.066C901.946 206.866 909.013 208.132 913.813 209.866C923.946 213.599 931.546 219.066 936.613 226.266C941.813 233.466 944.279 241.466 944.013 250.266C943.879 258.932 941.079 267.199 935.613 275.066C927.479 286.932 915.479 293.799 899.613 295.666C883.879 297.666 869.213 294.666 855.613 286.666C842.146 278.666 834.346 267.332 832.213 252.666Z" fill="#326CE5"/>
</svg>
