<svg width="450" height="449" viewBox="0 0 450 449" fill="none" xmlns="http://www.w3.org/2000/svg">
<path d="M224.971 0.871094L419.009 112.899V336.956L224.971 448.984L30.932 336.956V112.899L224.971 0.871094Z" fill="#010101"/>
<path d="M181.484 217.163H235.139C242.317 217.163 248.137 211.344 248.137 204.165C248.137 196.986 242.317 191.166 235.139 191.166H181.484V164.402H235.139C257.099 164.402 274.901 182.205 274.901 204.165C274.901 220.297 265.294 234.184 251.49 240.42L338.637 344.965L317.212 361.539L218.387 243.927H208.248V285.405H181.484V217.163Z" fill="white"/>
<mask id="path-3-inside-1_12826_62686" fill="white">
<path d="M311.819 298.413C328.526 276.287 340.775 243.989 338.7 216.342C336.626 188.695 324.547 162.751 304.726 143.366C284.904 123.981 258.698 112.484 231.011 111.025C203.325 109.567 176.056 118.247 154.307 135.442C132.559 152.637 117.821 177.169 112.853 204.445C107.885 231.721 113.027 259.873 127.316 283.632C141.606 307.39 164.063 325.128 190.486 333.525C216.909 341.922 252.298 338.012 277.681 326.861L259.107 302.476C240.235 310.767 218.988 311.897 199.343 305.654C179.698 299.411 163.001 286.224 152.377 268.559C141.753 250.895 137.93 229.964 141.624 209.685C145.318 189.405 156.275 171.167 172.444 158.382C188.614 145.598 208.888 139.144 229.473 140.229C250.058 141.313 269.542 149.861 284.279 164.274C299.016 178.686 307.996 197.975 309.538 218.53C311.081 239.086 305.08 259.499 292.659 275.949L311.819 298.413Z"/>
</mask>
<path d="M311.819 298.413L289.201 317.704L313.231 345.877L335.543 316.326L311.819 298.413ZM277.681 326.861L289.638 354.078L324.213 338.888L301.33 308.847L277.681 326.861ZM259.107 302.476L282.755 284.463L268.575 265.847L247.15 275.259L259.107 302.476ZM292.659 275.949L268.934 258.036L254.553 277.083L270.041 295.241L292.659 275.949ZM311.819 298.413L335.543 316.326C355.425 289.995 371.091 250.714 368.345 214.118L338.7 216.342L309.056 218.567C310.459 237.264 301.626 262.578 288.095 280.499L311.819 298.413ZM338.7 216.342L368.345 214.118C365.729 179.261 350.501 146.552 325.511 122.113L304.726 143.366L283.94 164.62C298.593 178.95 307.522 198.129 309.056 218.567L338.7 216.342ZM304.726 143.366L325.511 122.113C300.521 97.6731 267.481 83.1774 232.575 81.3386L231.011 111.025L229.448 140.712C249.915 141.79 269.287 150.289 283.94 164.62L304.726 143.366ZM231.011 111.025L232.575 81.3386C197.669 79.4998 163.289 90.4438 135.87 112.123L154.307 135.442L172.744 158.762C188.822 146.051 208.98 139.634 229.448 140.712L231.011 111.025ZM154.307 135.442L135.87 112.123C108.45 133.801 89.8701 164.729 83.6067 199.118L112.853 204.445L142.1 209.772C145.772 189.608 156.667 171.473 172.744 158.762L154.307 135.442ZM112.853 204.445L83.6067 199.118C77.3433 233.506 83.8259 268.999 101.841 298.953L127.316 283.632L152.792 268.31C142.228 250.746 138.427 229.935 142.1 209.772L112.853 204.445ZM127.316 283.632L101.841 298.953C119.857 328.907 148.17 351.27 181.483 361.856L190.486 333.525L199.49 305.193C179.957 298.986 163.355 285.874 152.792 268.31L127.316 283.632ZM190.486 333.525L181.483 361.856C216.066 372.847 258.968 367.552 289.638 354.078L277.681 326.861L265.724 299.644C245.627 308.473 217.752 310.997 199.49 305.193L190.486 333.525ZM277.681 326.861L301.33 308.847L282.755 284.463L259.107 302.476L235.459 320.49L254.033 344.874L277.681 326.861ZM259.107 302.476L247.15 275.259C234.897 280.643 221.101 281.376 208.346 277.323L199.343 305.654L190.34 333.986C216.875 342.418 245.573 340.892 271.064 329.693L259.107 302.476ZM199.343 305.654L208.346 277.323C195.591 273.269 184.75 264.707 177.852 253.238L152.377 268.559L126.902 283.881C141.252 307.741 163.805 325.554 190.34 333.986L199.343 305.654ZM152.377 268.559L177.852 253.238C170.954 241.769 168.472 228.179 170.871 215.012L141.624 209.685L112.377 204.358C107.388 231.75 112.552 260.021 126.902 283.881L152.377 268.559ZM141.624 209.685L170.871 215.012C173.269 201.845 180.383 190.003 190.882 181.702L172.444 158.382L154.007 135.063C132.166 152.331 117.366 176.966 112.377 204.358L141.624 209.685ZM172.444 158.382L190.882 181.702C201.38 173.402 214.544 169.211 227.909 169.915L229.473 140.229L231.037 110.542C203.233 109.077 175.848 117.795 154.007 135.063L172.444 158.382ZM229.473 140.229L227.909 169.915C241.274 170.619 253.925 176.169 263.493 185.527L284.279 164.274L305.064 143.02C285.158 123.553 258.841 112.007 231.037 110.542L229.473 140.229ZM284.279 164.274L263.493 185.527C273.062 194.885 278.892 207.409 279.894 220.755L309.538 218.53L339.183 216.306C337.099 188.541 324.97 162.488 305.064 143.02L284.279 164.274ZM309.538 218.53L279.894 220.755C280.895 234.101 276.999 247.355 268.934 258.036L292.659 275.949L316.383 293.863C333.161 271.643 341.266 244.07 339.183 216.306L309.538 218.53ZM292.659 275.949L270.041 295.241L289.201 317.704L311.819 298.413L334.437 279.121L315.277 256.657L292.659 275.949Z" fill="white" mask="url(#path-3-inside-1_12826_62686)"/>
<path d="M225.016 65.6211V139.346" stroke="white" stroke-width="27.1112"/>
<path d="M337.637 112.27L285.505 164.401" stroke="white" stroke-width="27.1112"/>
<path d="M384.285 224.895H310.56" stroke="white" stroke-width="27.1112"/>
<path d="M225.016 384.164V310.439" stroke="white" stroke-width="27.1112"/>
<path d="M112.395 337.516L164.526 285.384" stroke="white" stroke-width="27.1112"/>
<path d="M65.7422 224.895H139.467" stroke="white" stroke-width="27.1112"/>
<path d="M112.395 112.27L164.526 164.401" stroke="white" stroke-width="27.1112"/>
<circle cx="224.973" cy="224.93" r="133.172" stroke="white" stroke-width="7"/>
</svg>
