<svg width="449" height="449" viewBox="0 0 449 449" fill="none" xmlns="http://www.w3.org/2000/svg">
<path d="M224.412 0.871094L418.451 112.899V336.956L224.412 448.984L30.3734 336.956V112.899L224.412 0.871094Z" fill="#326CE5"/>
<path d="M180.926 217.163H234.58C241.759 217.163 247.579 211.344 247.579 204.165C247.579 196.986 241.759 191.166 234.58 191.166H180.926V164.402H234.58C256.54 164.402 274.342 182.205 274.342 204.165C274.342 220.297 264.736 234.184 250.932 240.42L338.078 344.965L316.654 361.539L217.829 243.927H207.69V285.405H180.926V217.163Z" fill="white"/>
<mask id="path-3-inside-1_12826_62685" fill="white">
<path d="M311.26 298.413C327.967 276.287 340.216 243.989 338.142 216.342C336.067 188.695 323.989 162.751 304.167 143.366C284.346 123.981 258.139 112.484 230.453 111.025C202.766 109.567 175.497 118.247 153.749 135.442C132 152.637 117.263 177.169 112.295 204.445C107.327 231.721 112.469 259.873 126.758 283.632C141.047 307.39 163.505 325.128 189.928 333.525C216.35 341.922 251.739 338.012 277.123 326.861L258.548 302.476C239.676 310.767 218.429 311.897 198.784 305.654C179.139 299.411 162.442 286.224 151.819 268.559C141.195 250.895 137.372 229.964 141.065 209.685C144.759 189.405 155.716 171.167 171.886 158.382C188.055 145.598 208.33 139.144 228.914 140.229C249.499 141.313 268.983 149.861 283.72 164.274C298.457 178.686 307.437 197.975 308.98 218.53C310.522 239.086 304.521 259.499 292.1 275.949L311.26 298.413Z"/>
</mask>
<path d="M311.26 298.413L288.643 317.704L312.672 345.877L334.985 316.326L311.26 298.413ZM277.123 326.861L289.08 354.078L323.654 338.888L300.771 308.847L277.123 326.861ZM258.548 302.476L282.197 284.463L268.017 265.847L246.591 275.259L258.548 302.476ZM292.1 275.949L268.376 258.036L253.994 277.083L269.482 295.241L292.1 275.949ZM311.26 298.413L334.985 316.326C354.867 289.995 370.532 250.714 367.786 214.118L338.142 216.342L308.497 218.567C309.9 237.264 301.067 262.578 287.536 280.499L311.26 298.413ZM338.142 216.342L367.786 214.118C365.17 179.261 349.943 146.552 324.952 122.113L304.167 143.366L283.382 164.62C298.035 178.95 306.964 198.129 308.497 218.567L338.142 216.342ZM304.167 143.366L324.952 122.113C299.962 97.6731 266.923 83.1774 232.017 81.3386L230.453 111.025L228.889 140.712C249.356 141.79 268.729 150.289 283.382 164.62L304.167 143.366ZM230.453 111.025L232.017 81.3386C197.111 79.4998 162.731 90.4438 135.311 112.123L153.749 135.442L172.186 158.762C188.263 146.051 208.422 139.634 228.889 140.712L230.453 111.025ZM153.749 135.442L135.311 112.123C107.892 133.801 89.3115 164.729 83.0481 199.118L112.295 204.445L141.541 209.772C145.214 189.608 156.108 171.473 172.186 158.762L153.749 135.442ZM112.295 204.445L83.0481 199.118C76.7847 233.506 83.2673 268.999 101.283 298.953L126.758 283.632L152.233 268.31C141.67 250.746 137.869 229.935 141.541 209.772L112.295 204.445ZM126.758 283.632L101.283 298.953C119.298 328.907 147.611 351.27 180.924 361.856L189.928 333.525L198.931 305.193C179.398 298.986 162.796 285.874 152.233 268.31L126.758 283.632ZM189.928 333.525L180.924 361.856C215.508 372.847 258.41 367.552 289.08 354.078L277.123 326.861L265.166 299.644C245.069 308.473 217.193 310.997 198.931 305.193L189.928 333.525ZM277.123 326.861L300.771 308.847L282.197 284.463L258.548 302.476L234.9 320.49L253.474 344.874L277.123 326.861ZM258.548 302.476L246.591 275.259C234.338 280.643 220.543 281.376 207.788 277.323L198.784 305.654L189.781 333.986C216.316 342.418 245.014 340.892 270.505 329.693L258.548 302.476ZM198.784 305.654L207.788 277.323C195.033 273.269 184.192 264.707 177.294 253.238L151.819 268.559L126.343 283.881C140.693 307.741 163.246 325.554 189.781 333.986L198.784 305.654ZM151.819 268.559L177.294 253.238C170.396 241.769 167.914 228.179 170.312 215.012L141.065 209.685L111.819 204.358C106.83 231.75 111.993 260.021 126.343 283.881L151.819 268.559ZM141.065 209.685L170.312 215.012C172.71 201.845 179.824 190.003 190.323 181.702L171.886 158.382L153.448 135.063C131.608 152.331 116.808 176.966 111.819 204.358L141.065 209.685ZM171.886 158.382L190.323 181.702C200.822 173.402 213.985 169.211 227.351 169.915L228.914 140.229L230.478 110.542C202.674 109.077 175.289 117.795 153.448 135.063L171.886 158.382ZM228.914 140.229L227.351 169.915C240.716 170.619 253.366 176.169 262.935 185.527L283.72 164.274L304.505 143.02C284.6 123.553 258.282 112.007 230.478 110.542L228.914 140.229ZM283.72 164.274L262.935 185.527C272.503 194.885 278.334 207.409 279.335 220.755L308.98 218.53L338.624 216.306C336.541 188.541 324.411 162.488 304.505 143.02L283.72 164.274ZM308.98 218.53L279.335 220.755C280.337 234.101 276.441 247.355 268.376 258.036L292.1 275.949L315.825 293.863C332.602 271.643 340.708 244.07 338.624 216.306L308.98 218.53ZM292.1 275.949L269.482 295.241L288.643 317.704L311.26 298.413L333.878 279.121L314.718 256.657L292.1 275.949Z" fill="white" mask="url(#path-3-inside-1_12826_62685)"/>
<path d="M224.457 65.6211V139.346" stroke="white" stroke-width="27.1112"/>
<path d="M337.078 112.27L284.947 164.401" stroke="white" stroke-width="27.1112"/>
<path d="M383.727 224.895H310.002" stroke="white" stroke-width="27.1112"/>
<path d="M224.457 384.164V310.439" stroke="white" stroke-width="27.1112"/>
<path d="M111.836 337.516L163.967 285.384" stroke="white" stroke-width="27.1112"/>
<path d="M65.1836 224.895H138.908" stroke="white" stroke-width="27.1112"/>
<path d="M111.836 112.27L163.967 164.401" stroke="white" stroke-width="27.1112"/>
<circle cx="224.414" cy="224.93" r="133.172" stroke="white" stroke-width="7"/>
</svg>
