<svg width="389" height="449" viewBox="0 0 389 449" fill="none" xmlns="http://www.w3.org/2000/svg">
<path d="M388.961 112.544V336.601L194.922 448.629L0.882812 336.601V112.544L194.922 0.515625L388.961 112.544ZM181.412 65.2656V88.5625C153.845 91.2683 128.682 102.164 108.388 118.785L91.9316 102.329L72.7607 121.5L89.209 137.948C72.5639 158.238 61.6466 183.405 58.9238 210.98H35.6973V238.092H58.916C61.6247 265.678 72.5346 290.856 89.1758 311.157L72.7607 327.573L91.9316 346.743L108.347 330.327C128.648 346.967 153.826 357.875 181.412 360.583V383.808H208.523V360.574C230.634 358.39 251.196 350.938 268.937 339.488L287.166 361.183L308.59 344.609L290.206 322.555C312.706 300.671 327.694 271.106 330.936 238.092H354.239V210.98H330.928C328.207 183.426 317.304 158.276 300.68 137.994L317.175 121.5L298.004 102.329L281.509 118.822C261.227 102.197 236.078 91.293 208.523 88.5713V65.2656H181.412ZM124.521 314.152C135.173 322.524 147.318 328.999 160.44 333.169C166.978 335.246 174.064 336.569 181.412 337.217V353.547C155.754 350.89 132.319 340.753 113.322 325.352L124.521 314.152ZM142.398 158.027C158.568 145.243 178.842 138.789 199.427 139.873C220.011 140.957 239.495 149.506 254.232 163.918C268.969 178.33 277.95 197.62 279.492 218.175C281.035 238.73 275.034 259.143 262.613 275.594L281.773 298.058C294.163 281.648 304.1 259.644 307.562 238.092H323.899C320.703 268.948 306.687 296.59 285.71 317.161L221.443 240.063C235.248 233.828 244.854 219.94 244.854 203.809C244.854 181.848 227.052 164.046 205.092 164.046H151.438V190.81H205.092C212.271 190.81 218.09 196.63 218.09 203.809C218.09 210.987 212.271 216.807 205.092 216.807H151.438V285.049H178.201V243.571H188.34L264.395 334.083C247.921 344.555 228.926 351.412 208.523 353.538V336.755C222.441 335.159 236.076 331.584 247.636 326.506L229.062 302.121C210.189 310.412 188.942 311.542 169.297 305.299C149.652 299.056 132.955 285.868 122.331 268.204C111.707 250.54 107.885 229.609 111.578 209.329C115.214 189.367 125.888 171.381 141.645 158.63L142.398 158.027ZM81.7754 238.092C83.6777 253.954 88.9057 269.368 97.2705 283.276L97.9463 284.386C100.221 288.072 102.694 291.608 105.349 294.984L94.1514 306.182C78.7491 287.186 68.6101 263.75 65.9521 238.092H81.7754ZM105.332 154.071C93.947 168.558 86.1571 185.7 82.8076 204.089C82.3902 206.381 82.0458 208.679 81.7705 210.98H65.96C68.6317 185.333 78.7786 161.909 94.1846 142.924L105.332 154.071ZM295.704 142.97C311.089 161.947 321.222 185.354 323.892 210.98H308.166C305.675 190.148 297.491 170.469 284.603 154.071L295.704 142.97ZM181.412 111.321C160.759 113.795 141.044 121.891 124.501 134.898L113.363 123.761C132.352 108.379 155.773 98.2536 181.412 95.5986V111.321ZM208.523 95.6074C234.15 98.2779 257.557 108.412 276.533 123.798L265.434 134.898C249.012 121.986 229.325 113.812 208.523 111.321V95.6074Z" fill="white"/>
</svg>
